<svg height="512" width="512" xmlns="http://www.w3.org/2000/svg"><path d="M256 226a50 50 0 10-.1-100.1A50 50 0 00256 226zm0-80a30 30 0 110 60 30 30 0 010-60z" fill="white"/><path d="M182.7 450.8A50.1 50.1 0 00137 412a72.6 72.6 0 00-75.1-39.4C28.9 377.4 0 409.7 0 442c0 36.2 31.6 70 72 70h139a10 10 0 000-20H72c-27.7 0-52-23.4-52-50 0-22.2 21.7-46.2 44.7-49.5a53 53 0 0151.2 22.9 50 50 0 00-17.3 11.3 10 10 0 0014.2 14A30 30 0 01164 462a10 10 0 0010 10.1c28.2 0 52-22.9 52-50v-36h60v36c0 27.1 23.8 50 52 50a10 10 0 0010-10 30 30 0 0151.2-21.2 10 10 0 1014.2-14.1 50 50 0 00-17.3-11.3 53 53 0 0151.2-22.9c23.4 3.3 45.1 27.8 44.7 50.3a52 52 0 01-52 49.2H301a10 10 0 000 20h139c38.3 0 71.3-31.5 72-68.8.6-32.8-28.3-65.7-61.9-70.5a72.6 72.6 0 00-75 39.4 50.1 50.1 0 00-45.8 38.7C316.2 447 306 435.2 306 422v-36h10c5 0 9.3-3.7 10-8.7l4-31.3h44.1a32 32 0 0024.2-52.7l-53-61.8 5.2-38.6c10.2-76.4-27-154-89.4-191.5a10 10 0 00-10.2 0C188.5 39 151.3 116.5 161.5 193l5.1 38.6-53 61.8A32 32 0 00138 346h44l4.2 31.3a10 10 0 009.9 8.7h10v36c0 13.2-10.2 25-23.3 28.8zm200.4-144.4a12 12 0 01-9 19.6h-41.3l9-67.9zM256 21.8c15.2 10 28.9 23 40.3 38.2h-80.6c11.4-15.2 25-28.2 40.3-38.2zM202.8 80h106.4a179.2 179.2 0 0121.5 110.3L312.6 326H199.4l-18-135.7c-5-37.5 2.5-76.5 21.4-110.3zm-64.9 246a12 12 0 01-9-19.6l41.3-48.3 9 67.9zm64.2 20h107.8l-2.7 20H204.8z" fill="white"/><circle cx="256" cy="502" r="10" fill="white"/></svg>
